<svg width="46" height="46" viewBox="0 0 46 46" fill="none" xmlns="http://www.w3.org/2000/svg">
<path d="M45.5 23C45.5 18.5499 44.1804 14.1998 41.7081 10.4997C39.2357 6.79957 35.7217 3.91569 31.6104 2.21272C27.4991 0.509749 22.975 0.0641737 18.6105 0.932341C14.2459 1.80051 10.2368 3.94343 7.09011 7.09011C3.94343 10.2368 1.80051 14.2459 0.932341 18.6105C0.0641737 22.975 0.509749 27.4991 2.21272 31.6104C3.91569 35.7217 6.79957 39.2357 10.4997 41.7081C14.1998 44.1804 18.5499 45.5 23 45.5C28.9653 45.4933 34.6844 43.1206 38.9025 38.9025C43.1206 34.6844 45.4933 28.9653 45.5 23ZM19.4698 32.5303C19.3292 32.3896 19.2502 32.1989 19.2502 32C19.2502 31.8011 19.3292 31.6104 19.4698 31.4698L27.9395 23L19.4698 14.5303C19.3331 14.3888 19.2575 14.1994 19.2593 14.0027C19.261 13.8061 19.3398 13.618 19.4789 13.4789C19.618 13.3398 19.8061 13.261 20.0027 13.2593C20.1994 13.2575 20.3888 13.3331 20.5303 13.4698L29.5303 22.4698C29.6709 22.6104 29.7499 22.8011 29.7499 23C29.7499 23.1989 29.6709 23.3896 29.5303 23.5303L20.5303 32.5303C20.3896 32.6709 20.1989 32.7499 20 32.7499C19.8011 32.7499 19.6104 32.6709 19.4698 32.5303Z" fill="#9B9FAC"/>
</svg>
