<svg width="46" height="46" viewBox="0 0 46 46" fill="none" xmlns="http://www.w3.org/2000/svg">
<path d="M0.499989 23C0.499989 18.5499 1.81959 14.1998 4.29192 10.4997C6.76426 6.79957 10.2783 3.91569 14.3896 2.21272C18.5009 0.509749 23.0249 0.0641738 27.3895 0.932341C31.7541 1.80051 35.7632 3.94343 38.9099 7.09011C42.0566 10.2368 44.1995 14.2459 45.0677 18.6105C45.9358 22.9751 45.4903 27.4991 43.7873 31.6104C42.0843 35.7217 39.2004 39.2357 35.5003 41.7081C31.8002 44.1804 27.4501 45.5 23 45.5C17.0347 45.4933 11.3156 43.1206 7.09754 38.9025C2.87943 34.6844 0.506737 28.9653 0.499989 23ZM26.5302 32.5303C26.6708 32.3896 26.7498 32.1989 26.7498 32C26.7498 31.8011 26.6708 31.6104 26.5302 31.4698L18.0605 23L26.5302 14.5303C26.6669 14.3888 26.7425 14.1994 26.7407 14.0027C26.739 13.8061 26.6602 13.618 26.5211 13.4789C26.382 13.3398 26.1939 13.261 25.9973 13.2593C25.8006 13.2575 25.6112 13.3331 25.4697 13.4698L16.4697 22.4698C16.3291 22.6104 16.2501 22.8011 16.2501 23C16.2501 23.1989 16.3291 23.3896 16.4697 23.5303L25.4697 32.5303C25.6104 32.6709 25.8011 32.7499 26 32.7499C26.1989 32.7499 26.3896 32.6709 26.5302 32.5303Z" fill="#9B9FAC"/>
</svg>
