<svg width="64" height="65" viewBox="0 0 64 65" fill="none" xmlns="http://www.w3.org/2000/svg">
<g clip-path="url(#clip0)">
<path d="M8 13.7952C8 13.5299 8.10536 13.2756 8.29289 13.0881C8.48043 12.9005 8.73478 12.7952 9 12.7952H55C55.2652 12.7952 55.5196 12.9005 55.7071 13.0881C55.8946 13.2756 56 13.5299 56 13.7952V43.7952H58V11.7952C58 10.4691 57.4732 9.19731 56.5355 8.25963C55.5979 7.32195 54.3261 6.79517 53 6.79517H11C9.67392 6.79517 8.40215 7.32195 7.46447 8.25963C6.52678 9.19731 6 10.4691 6 11.7952V43.7952H8V13.7952Z" fill="white"/>
<path d="M63 45.7952H41V49.7952H23V45.7952H1C0.734784 45.7952 0.48043 45.9005 0.292893 46.0881C0.105357 46.2756 0 46.5299 0 46.7952C0.0029116 49.4464 1.05742 51.9883 2.93215 53.863C4.80688 55.7378 7.34873 56.7923 10 56.7952H54C56.6513 56.7923 59.1931 55.7378 61.0679 53.863C62.9426 51.9883 63.9971 49.4464 64 46.7952C64 46.5299 63.8946 46.2756 63.7071 46.0881C63.5196 45.9005 63.2652 45.7952 63 45.7952Z" fill="white"/>
<path d="M28 36.7952C27.7348 36.7952 27.4804 36.6899 27.2929 36.5023C27.1054 36.3148 27 36.0604 27 35.7952V21.7952C26.9999 21.616 27.048 21.44 27.1393 21.2857C27.2305 21.1315 27.3616 21.0045 27.5187 20.9183C27.6758 20.832 27.8532 20.7895 28.0323 20.7953C28.2115 20.8011 28.3858 20.855 28.537 20.9512L39.537 27.9512C39.6791 28.0415 39.7961 28.1662 39.8771 28.3137C39.9582 28.4613 40.0007 28.6269 40.0007 28.7952C40.0007 28.9636 39.9582 29.1292 39.8771 29.2767C39.7961 29.4242 39.6791 29.5489 39.537 29.6392L28.537 36.6392C28.3765 36.7412 28.1902 36.7953 28 36.7952Z" fill="white"/>
</g>
<defs>
<clipPath id="clip0">
<rect width="64" height="64" fill="white" transform="translate(0 0.795166)"/>
</clipPath>
</defs>
</svg>
