<svg width="48" height="37" viewBox="0 0 48 37" fill="none" xmlns="http://www.w3.org/2000/svg">
  <path
    d="M29.457 20.098C29.4701 20.6275 29.3656 21.1534 29.1508 21.6376C28.936 22.1218 28.6164 22.5523 28.215 22.898C27.1892 23.7115 25.9363 24.1867 24.629 24.258V26.798H23.07V24.328C21.4364 24.3564 19.8141 24.0533 18.301 23.437V20.965C19.055 21.3219 19.8443 21.5987 20.656 21.791C21.4447 21.9985 22.2547 22.1146 23.07 22.137V17.754L22.086 17.391C21.0217 17.038 20.0587 16.4328 19.279 15.627C18.6808 14.9197 18.3658 14.0159 18.395 13.09C18.3847 12.5794 18.4931 12.0735 18.7116 11.6119C18.93 11.1503 19.2526 10.7457 19.654 10.43C20.6412 9.67733 21.8307 9.23651 23.07 9.164V7.198H24.629V9.132C26.1785 9.17903 27.7068 9.50456 29.141 10.093L28.285 12.237C27.1166 11.7666 25.8842 11.4744 24.629 11.37V15.636L25.52 15.976C26.6679 16.3406 27.7205 16.9554 28.602 17.776C29.1734 18.4122 29.4794 19.2431 29.457 20.098ZM21.148 13.066C21.1352 13.4775 21.2846 13.8776 21.564 14.18C22.0007 14.5728 22.5132 14.8719 23.07 15.059V11.414C22.5486 11.4648 22.0527 11.664 21.641 11.988C21.4837 12.1196 21.3579 12.2847 21.2726 12.4712C21.1873 12.6577 21.1447 12.8609 21.148 13.066ZM26.691 20.273C26.6971 20.0634 26.6578 19.8549 26.576 19.6618C26.4942 19.4687 26.3718 19.2955 26.217 19.154C25.7448 18.7751 25.2064 18.4872 24.629 18.305V22.043C26.0043 21.8317 26.6917 21.2417 26.691 20.273Z"
    fill="#CC3366" />
  <path
    d="M6 4.49805H42V26.498H44V4.49805C44 3.43718 43.5786 2.41976 42.8284 1.66962C42.0783 0.919474 41.0609 0.498047 40 0.498047H8C6.93913 0.498047 5.92172 0.919474 5.17157 1.66962C4.42143 2.41976 4 3.43718 4 4.49805V26.498H6V4.49805Z"
    fill="#CC3366" />
  <path
    d="M31 28.498V31.498H17V28.498H0C0 30.6198 0.842855 32.6546 2.34315 34.1549C3.84344 35.6552 5.87827 36.498 8 36.498H40C42.1217 36.498 44.1566 35.6552 45.6569 34.1549C47.1571 32.6546 48 30.6198 48 28.498H31Z"
    fill="#CC3366" />
</svg>
