<svg width="48" height="49" viewBox="0 0 48 49" fill="none" xmlns="http://www.w3.org/2000/svg">
  <path
    d="M43 27.498H29C28.4477 27.498 28 27.9458 28 28.498V38.498C28 39.0503 28.4477 39.498 29 39.498H43C43.5523 39.498 44 39.0503 44 38.498V28.498C44 27.9458 43.5523 27.498 43 27.498Z"
    fill="#CC3366" />
  <path
    d="M43.651 15.74L38 10.898V2.49805C38 2.23283 37.8946 1.97848 37.7071 1.79094C37.5196 1.6034 37.2652 1.49805 37 1.49805H35C34.7348 1.49805 34.4804 1.6034 34.2929 1.79094C34.1054 1.97848 34 2.23283 34 2.49805V10.898L28.349 15.742C28.2399 15.8356 28.1523 15.9515 28.0921 16.082C28.0318 16.2125 28.0004 16.3544 28 16.498V21.498C28 21.7633 28.1054 22.0176 28.2929 22.2052C28.4804 22.3927 28.7348 22.498 29 22.498C29.2652 22.498 29.5196 22.3927 29.7071 22.2052C29.8946 22.0176 30 21.7633 30 21.498V16.958L36 11.815L42 16.958V21.498C42 21.7633 42.1054 22.0176 42.2929 22.2052C42.4804 22.3927 42.7348 22.498 43 22.498C43.2652 22.498 43.5196 22.3927 43.7071 22.2052C43.8946 22.0176 44 21.7633 44 21.498V16.498C43.9998 16.354 43.9686 16.2117 43.9083 16.0809C43.8481 15.9501 43.7603 15.8338 43.651 15.74Z"
    fill="#CC3366" />
  <path
    d="M23 19.498H5C4.73478 19.498 4.48043 19.6034 4.29289 19.7909C4.10536 19.9785 4 20.2328 4 20.498V38.498C4 38.7633 4.10536 39.0176 4.29289 39.2052C4.48043 39.3927 4.73478 39.498 5 39.498H23C23.2652 39.498 23.5196 39.3927 23.7071 39.2052C23.8946 39.0176 24 38.7633 24 38.498V20.498C24 20.2328 23.8946 19.9785 23.7071 19.7909C23.5196 19.6034 23.2652 19.498 23 19.498ZM17 25.498H11C10.7348 25.498 10.4804 25.3927 10.2929 25.2052C10.1054 25.0176 10 24.7633 10 24.498C10 24.2328 10.1054 23.9785 10.2929 23.7909C10.4804 23.6034 10.7348 23.498 11 23.498H17C17.2652 23.498 17.5196 23.6034 17.7071 23.7909C17.8946 23.9785 18 24.2328 18 24.498C18 24.7633 17.8946 25.0176 17.7071 25.2052C17.5196 25.3927 17.2652 25.498 17 25.498Z"
    fill="#CC3366" />
  <path
    d="M44 41.498H4C3.20435 41.498 2.44129 41.8141 1.87868 42.3767C1.31607 42.9393 1 43.7024 1 44.498C1 45.2937 1.31607 46.0568 1.87868 46.6194C2.44129 47.182 3.20435 47.498 4 47.498H44C44.7957 47.498 45.5587 47.182 46.1213 46.6194C46.6839 46.0568 47 45.2937 47 44.498C47 43.7024 46.6839 42.9393 46.1213 42.3767C45.5587 41.8141 44.7957 41.498 44 41.498Z"
    fill="#CC3366" />
</svg>
